REM DIRINDEX 1\2,1\3,1\4,1\5
REM DIRNAME "folder01","folder02","folder03","folder04","folder05"
TITLE ""
FILE "P1Q_t_0459-0468.mp3" MP3
  TRACK 01 AUDIO
    TITLE "3:cjc173_2304"
    INDEX 01 00:00:00
  TRACK 02 AUDIO
    TITLE "0:"
    INDEX 01 00:01:27
  TRACK 03 AUDIO
    TITLE "4:cjc173_2305"
    INDEX 01 00:01:47
  TRACK 04 AUDIO
    TITLE "0:"
    INDEX 01 00:03:32
  TRACK 05 AUDIO
    TITLE "5:cjc173_2306"
    INDEX 01 00:03:52
  TRACK 06 AUDIO
    TITLE "0:"
    INDEX 01 00:07:69
  TRACK 07 AUDIO
    TITLE "3:cjc173_2307"
    INDEX 01 00:08:16
  TRACK 08 AUDIO
    TITLE "0:"
    INDEX 01 00:09:21
  TRACK 09 AUDIO
    TITLE "4:cjc173_2308"
    INDEX 01 00:09:46
  TRACK 10 AUDIO
    TITLE "0:"
    INDEX 01 00:12:57
  TRACK 11 AUDIO
    TITLE "5:cjc173_2309"
    INDEX 01 00:13:01
  TRACK 12 AUDIO
    TITLE "0:"
    INDEX 01 00:17:71
  TRACK 13 AUDIO
    TITLE "3:cjc173_2310"
    INDEX 01 00:18:18
  TRACK 14 AUDIO
    TITLE "0:"
    INDEX 01 00:19:29
  TRACK 15 AUDIO
    TITLE "4:cjc173_2311"
    INDEX 01 00:19:49
  TRACK 16 AUDIO
    TITLE "0:"
    INDEX 01 00:21:63
  TRACK 17 AUDIO
    TITLE "5:cjc173_2312"
    INDEX 01 00:22:10
  TRACK 18 AUDIO
    TITLE "0:"
    INDEX 01 00:26:31
  TRACK 19 AUDIO
    TITLE "3:cjc173_2313"
    INDEX 01 00:26:51
  TRACK 20 AUDIO
    TITLE "0:"
    INDEX 01 00:27:62
  TRACK 21 AUDIO
    TITLE "4:cjc173_2314"
    INDEX 01 00:28:07
  TRACK 22 AUDIO
    TITLE "0:"
    INDEX 01 00:32:06
  TRACK 23 AUDIO
    TITLE "5:cjc173_2315"
    INDEX 01 00:32:26
  TRACK 24 AUDIO
    TITLE "0:"
    INDEX 01 00:39:38
  TRACK 25 AUDIO
    TITLE "3:cjc173_2316"
    INDEX 01 00:39:59
  TRACK 26 AUDIO
    TITLE "0:"
    INDEX 01 00:41:15
  TRACK 27 AUDIO
    TITLE "4:cjc173_2317"
    INDEX 01 00:41:37
  TRACK 28 AUDIO
    TITLE "0:"
    INDEX 01 00:45:64
  TRACK 29 AUDIO
    TITLE "5:cjc173_2318"
    INDEX 01 00:46:08
  TRACK 30 AUDIO
    TITLE "0:"
    INDEX 01 00:50:22
  TRACK 31 AUDIO
    TITLE "3:cjc173_2319"
    INDEX 01 00:50:43
  TRACK 32 AUDIO
    TITLE "0:"
    INDEX 01 00:52:11
  TRACK 33 AUDIO
    TITLE "4:cjc173_2320"
    INDEX 01 00:52:33
  TRACK 34 AUDIO
    TITLE "0:"
    INDEX 01 00:53:59
  TRACK 35 AUDIO
    TITLE "5:cjc173_2321"
    INDEX 01 00:54:04
  TRACK 36 AUDIO
    TITLE "0:"
    INDEX 01 01:00:22
  TRACK 37 AUDIO
    TITLE "3:cjc173_2322"
    INDEX 01 01:00:44
  TRACK 38 AUDIO
    TITLE "0:"
    INDEX 01 01:01:69
  TRACK 39 AUDIO
    TITLE "4:cjc173_2323"
    INDEX 01 01:02:15
  TRACK 40 AUDIO
    TITLE "0:"
    INDEX 01 01:04:63
  TRACK 41 AUDIO
    TITLE "5:cjc173_2324"
    INDEX 01 01:05:08
  TRACK 42 AUDIO
    TITLE "0:"
    INDEX 01 01:10:32
  TRACK 43 AUDIO
    TITLE "3:cjc173_2325"
    INDEX 01 01:10:52
  TRACK 44 AUDIO
    TITLE "0:"
    INDEX 01 01:11:75
  TRACK 45 AUDIO
    TITLE "4:cjc173_2326"
    INDEX 01 01:12:24
  TRACK 46 AUDIO
    TITLE "0:"
    INDEX 01 01:14:28
  TRACK 47 AUDIO
    TITLE "5:cjc173_2327"
    INDEX 01 01:14:50
  TRACK 48 AUDIO
    TITLE "0:"
    INDEX 01 01:21:03
  TRACK 49 AUDIO
    TITLE "3:cjc173_2328"
    INDEX 01 01:21:24
  TRACK 50 AUDIO
    TITLE "0:"
    INDEX 01 01:22:49
  TRACK 51 AUDIO
    TITLE "4:cjc173_2329"
    INDEX 01 01:22:71
  TRACK 52 AUDIO
    TITLE "0:"
    INDEX 01 01:25:50
  TRACK 53 AUDIO
    TITLE "5:cjc173_2330"
    INDEX 01 01:25:71
  TRACK 54 AUDIO
    TITLE "0:"
    INDEX 01 01:31:40
  TRACK 55 AUDIO
    TITLE "3:cjc173_2331"
    INDEX 01 01:31:62
  TRACK 56 AUDIO
    TITLE "0:"
    INDEX 01 01:32:65
  TRACK 57 AUDIO
    TITLE "4:cjc173_2332"
    INDEX 01 01:33:12
  TRACK 58 AUDIO
    TITLE "0:"
    INDEX 01 01:34:02
  TRACK 59 AUDIO
    TITLE "5:cjc173_2333"
    INDEX 01 01:34:21
  TRACK 60 AUDIO
    TITLE "0:"
    INDEX 01 01:38:11
